<?xml version="1.0" encoding="utf-8"?>
<!-- Generator: Adobe Illustrator 22.1.0, SVG Export Plug-In . SVG Version: 6.00 Build 0)  -->
<svg version="1.2" baseProfile="tiny" id="Layer_1" xmlns="http://www.w3.org/2000/svg" xmlns:xlink="http://www.w3.org/1999/xlink"
	 x="0px" y="0px" viewBox="0 0 256 256" xml:space="preserve">
<path fill-rule="evenodd" fill="#FFFFFF" d="M128.3,3.5C57.8,3.5,0.7,60.6,0.7,131.2c0,56.4,36.6,104.3,87.3,121.1
	c6.4,1.2,8.7-2.8,8.7-6.2c0-3-0.1-11.1-0.2-21.7c-35.5,7.7-43-17.1-43-17.1c-5.8-14.7-14.2-18.7-14.2-18.7
	c-11.6-7.9,0.9-7.8,0.9-7.8C53,181.8,59.8,194,59.8,194c11.4,19.5,29.9,13.9,37.2,10.6c1.2-8.3,4.5-13.9,8.1-17.1
	c-28.4-3.2-58.2-14.2-58.2-63.1c0-13.9,5-25.3,13.1-34.3C58.7,87,54.3,74,61.3,56.4c0,0,10.7-3.4,35.1,13.1
	c10.2-2.8,21.1-4.2,32-4.3c10.8,0,21.8,1.5,32,4.3c24.4-16.5,35.1-13.1,35.1-13.1c7,17.6,2.6,30.6,1.3,33.8
	c8.2,8.9,13.1,20.3,13.1,34.3c0,49-29.9,59.8-58.3,63c4.6,3.9,8.7,11.7,8.7,23.6c0,17.1-0.2,30.8-0.2,35c0,3.4,2.3,7.4,8.8,6.1
	c50.7-16.9,87.2-64.7,87.2-121.1C256,60.6,198.8,3.5,128.3,3.5z"/>
<g>
</g>
<g>
</g>
<g>
</g>
<g>
</g>
<g>
</g>
<g>
</g>
<g>
</g>
<g>
</g>
<g>
</g>
<g>
</g>
<g>
</g>
<g>
</g>
<g>
</g>
<g>
</g>
<g>
</g>
</svg>
