<?xml version="1.0" encoding="utf-8"?>
<!-- Generator: Adobe Illustrator 22.1.0, SVG Export Plug-In . SVG Version: 6.00 Build 0)  -->
<svg version="1.2" baseProfile="tiny" id="Layer_2" xmlns="http://www.w3.org/2000/svg" xmlns:xlink="http://www.w3.org/1999/xlink"
	 x="0px" y="0px" viewBox="0 0 338 314" xml:space="preserve">
<g>
	<path fill="#FFFFFF" stroke="#222222" stroke-width="4" stroke-miterlimit="10" d="M72.9,212.5l0.9,93.1c0,0.9,1.2,1.2,1.7,0.5
		l54.1-88.3l-51.7-12l-4.8,6.2C73,212.1,72.9,212.3,72.9,212.5z"/>
	<path fill="#FFFFFF" stroke="#222222" stroke-width="4" stroke-miterlimit="10" d="M95.2,183.4l-21.8,28.2
		c-0.2,0.3-0.1,0.7,0.3,0.8l87.9,16.5c0.3,0.1,0.6,0,0.9-0.1l39-19.5l-74.7-54.6L95.2,183.4z"/>
	<path fill="#FFFFFF" stroke="#222222" stroke-width="4" stroke-miterlimit="10" d="M153.4,198.3l8.4,29.8c0.1,0.4,0.6,0.6,1,0.4
		l60.1-30.1c0.2-0.1,0.2-0.3,0.1-0.5l-28.5-29.4L153.4,198.3z"/>
	<path fill="#FFFFFF" stroke="#222222" stroke-width="4" stroke-miterlimit="10" d="M108.9,168.4l-13.5,14.8c-0.1,0.1,0,0.3,0.1,0.3
		l56.3,14.8l26.9-28.8l-63.1-13L108.9,168.4z"/>
	<path fill="#FFFFFF" stroke="#222222" stroke-width="4" stroke-miterlimit="10" d="M192.2,105.8l-14.6-20.6
		c-4.8-6.8-10.8-12.7-17.7-17.4l-55.1-37.8C99.7,26.3,93,30.9,94.3,37l11.6,52.3c0.3,1.4,1.1,2.7,2.3,3.6l54.1,39.7
		c2.1,1.5,4.9,1.6,7,0.1l23.5-16.3c3.2-2.3,3.5-7,0.5-9.5v0C192.9,106.5,192.5,106.2,192.2,105.8z"/>
	<path fill="#FFFFFF" stroke="#222222" stroke-width="4" stroke-miterlimit="10" d="M223.5,197.8l18.4-57.1l-52,27.8L223,198
		C223.1,198.1,223.4,198,223.5,197.8z"/>
	<path fill="#FFFFFF" stroke="#222222" stroke-width="4" stroke-miterlimit="10" d="M276.2,138.9h51.5c0.8,0,1.1-1.1,0.4-1.5
		L276.2,111"/>
	<path fill="#FFFFFF" stroke="#222222" stroke-width="4" stroke-miterlimit="10" d="M262,78l14.2,33v27.8h-48
		c0,0,18.3-54.8,19.2-53.8"/>
	<path fill="#FFFFFF" stroke="#222222" stroke-width="4" stroke-miterlimit="10" d="M224.2,81.2l37.2-3.5c0.4,0,0.8,0.4,0.7,0.8
		l-12.7,59.1c0,0.2-0.2,0.4-0.4,0.4l-20.5,0.9c-0.3,0-0.5-0.2-0.5-0.4l-4.5-56.2C223.3,81.7,223.7,81.3,224.2,81.2z"/>
	<path fill="#FFFFFF" stroke="#222222" stroke-width="4" stroke-miterlimit="10" d="M218.7,180.6l30.6-42.7l-25.8-56.2
		c-0.1-0.2-0.4-0.3-0.6-0.2l-53.8,34.2l-8,8.2l50.1,59.4L218.7,180.6z"/>
	<path fill="#FFFFFF" stroke="#222222" stroke-width="4" stroke-miterlimit="10" d="M219.2,182.8L219.2,182.8
		c-0.4-1.4-1-2.7-1.9-3.9l-65.6-85.8c-3.6-4.7-8-8.9-12.9-12.2L31.4,8.2C22.2,1.9,10.3,11,14,21.6l35,99.8c1.7,4.7,4.7,8.8,8.8,11.6
		l91.2,63.3c1.8,1.3,4,2,6.2,2h52C215.4,198.3,221.3,190.6,219.2,182.8z"/>
</g>
<g>
</g>
<g>
</g>
<g>
</g>
<g>
</g>
<g>
</g>
<g>
</g>
<g>
</g>
<g>
</g>
<g>
</g>
<g>
</g>
<g>
</g>
</svg>
